<svg width="37px" height="14px" viewBox="0 0 37 14" version="1.1" xmlns="http://www.w3.org/2000/svg" xmlns:xlink="http://www.w3.org/1999/xlink">
    <path d="M19.089,-10.589 C19.2516667,-10.4263333 19.333,-10.23 19.333,-10 L19.333,21.988 L23.741,17.574 C23.9016667,17.4133333 24.099,17.333 24.333,17.333 C24.5716667,17.333 24.7703333,17.4123333 24.929,17.571 C25.0876667,17.7296667 25.167,17.9283333 25.167,18.167 C25.167,18.4016667 25.0866667,18.599 24.926,18.759 L19.093,24.592 C18.9323333,24.7526667 18.735,24.833 18.501,24.833 C18.267,24.833 18.0696667,24.7526667 17.909,24.592 L12.076,18.759 C11.9153333,18.5983333 11.835,18.401 11.835,18.167 C11.835,17.9283333 11.9143333,17.7296667 12.073,17.571 C12.2316667,17.4123333 12.4303333,17.333 12.669,17.333 C12.9036667,17.333 13.101,17.4133333 13.261,17.574 L17.669,21.988 L17.669,-10 C17.669,-10.23 17.7503333,-10.4263333 17.913,-10.589 C18.0756667,-10.7516667 18.272,-10.833 18.502,-10.833 C18.73,-10.833 18.9263333,-10.7516667 19.089,-10.589 Z" id="Shape" fill="#000000" transform="translate(18.501000, 7.000000) rotate(-270.000000) translate(-18.501000, -7.000000) "></path>
</svg>