<svg width="24px" height="24px" viewBox="0 0 24 24" version="1.1" xmlns="http://www.w3.org/2000/svg" xmlns:xlink="http://www.w3.org/1999/xlink">
    <path d="M12,3.667 C12.23,3.667 12.4263333,3.74833333 12.589,3.911 C12.7516667,4.07366667 12.833,4.27 12.833,4.5 L12.833,17.488 L17.241,13.074 C17.4016667,12.9133333 17.599,12.833 17.833,12.833 C18.0716667,12.833 18.2703333,12.9123333 18.429,13.071 C18.5876667,13.2296667 18.667,13.4283333 18.667,13.667 C18.667,13.9016667 18.5866667,14.099 18.426,14.259 L12.593,20.092 C12.4323333,20.2526667 12.235,20.333 12.001,20.333 C11.767,20.333 11.5696667,20.2526667 11.409,20.092 L5.576,14.259 C5.41533333,14.0983333 5.335,13.901 5.335,13.667 C5.335,13.4283333 5.41433333,13.2296667 5.573,13.071 C5.73166667,12.9123333 5.93033333,12.833 6.169,12.833 C6.40366667,12.833 6.601,12.9133333 6.761,13.074 L11.169,17.488 L11.169,4.5 C11.169,4.27 11.2503333,4.07366667 11.413,3.911 C11.5756667,3.74833333 11.772,3.667 12.002,3.667 L12,3.667 Z" id="Shape" transform="translate(12.001000, 12.000000) rotate(-180.000000) translate(-12.001000, -12.000000) "></path>
</svg>