<svg width="11px" height="11px" viewBox="0 0 11 11" version="1.1" xmlns="http://www.w3.org/2000/svg" xmlns:xlink="http://www.w3.org/1999/xlink">
        <path d="M10,1.70710678 L3.88926768,7.8178391 L3.53571429,8.1713925 L2.8286075,7.46428571 L3.1821609,7.11073232 L9.29289322,1 L5.5,1 L5,1 L5,0 L5.5,0 L10.5,0 L11,0 L11,0.75 L11,5.5 L11,6 L10,6 L10,5.5 L10,1.70710678 Z M4.00830078,3.14285714 L0,3.14285714 L0,11 L7.85714286,11 L7.85714286,6.67285156 L6.85714286,6.67285156 L6.85714286,11 L7.85714286,10 L0,10 L1,11 L1,3.14285714 L0,4.14285714 L4.00830078,4.14285714 L4.00830078,3.14285714 Z" id="Combined-Shape"></path>
</svg>