<svg width="19px" height="48px" viewBox="0 0 19 48" version="1.1" xmlns="http://www.w3.org/2000/svg" xmlns:xlink="http://www.w3.org/1999/xlink">
    <g id="Design" stroke="none" stroke-width="1" fill="none" fill-rule="evenodd">
        <g id="LAMAS---Contact" transform="translate(-332.000000, -1170.000000)">
            <g id="Page-1" transform="translate(332.000000, 1170.000000)">
                <path d="M2.74916319,6.14796074 C2.74872147,7.3422184 3.72697914,8.32194847 4.91991166,8.32180123 C6.08678282,8.32180123 7.09522454,7.30452515 7.08992393,6.13279509 C7.08477055,4.95929816 6.11063558,3.98648834 4.9343411,3.98000982 C3.7583411,3.97367853 2.74960491,4.97431656 2.74916319,6.14796074 M10.2049178,19.2476908 L10.2049178,19.7509546 C10.2049178,28.6085742 10.1999117,37.4666356 10.2174331,46.3244025 C10.2184638,46.8696294 10.1243779,47.2992736 9.67529816,47.6259975 C9.57900368,47.695789 9.5149546,47.8097521 9.40378896,47.9416785 C9.08442699,47.6448442 8.78273374,47.3982184 8.52918773,47.1094822 C8.4439362,47.0123043 8.46440245,46.8074945 8.46440245,46.6520098 C8.46160491,39.6098503 8.46204663,32.567838 8.46204663,25.5258258 C8.46204663,23.5382429 8.45659877,21.5508074 8.4679362,19.5633718 C8.46955583,19.2725742 8.39122454,19.177016 8.08923681,19.1368196 C4.01527362,18.5951264 0.655715337,15.2181939 0.0982674847,11.1264147 C-0.45476319,7.0680589 1.35716319,3.30624294 4.80859877,1.34751902 C10.260427,-1.74671411 17.3413104,1.43041472 18.6627828,7.56366626 C19.6090896,11.9568442 17.6982184,16.1689178 13.8351018,18.1928687 C12.7154945,18.7794699 11.515789,19.1058994 10.2049178,19.2476908" id="Fill-1" fill="#0F0F0F"></path>
                <path d="M2.74916319,6.14796074 C2.74960491,4.97431656 3.7583411,3.97367853 4.9343411,3.98000982 C6.11063558,3.98648834 7.08477055,4.95929816 7.08992393,6.13279509 C7.09522454,7.30452515 6.08678282,8.32180123 4.91991166,8.32180123 C3.72697914,8.32194847 2.74872147,7.3422184 2.74916319,6.14796074" id="Fill-4" fill="#FFFFFF"></path>
            </g>
        </g>
    </g>
</svg>