<svg width="80px" height="80px" viewBox="0 0 80 80" version="1.1" xmlns="http://www.w3.org/2000/svg" xmlns:xlink="http://www.w3.org/1999/xlink">
    <path d="M24.1254019,54.6366559 C24.6055758,58.1007676 25.5487604,60.6902379 26.9549839,62.4051447 C29.5273441,65.526275 33.9345883,67.0868167 40.1768489,67.0868167 C43.9153456,67.0868167 46.950685,66.6752453 49.2829582,65.85209 C53.7074176,64.2743758 55.9196141,61.3419293 55.9196141,57.0546624 C55.9196141,54.5508985 54.8220903,52.613083 52.6270096,51.2411576 C50.431929,49.9035303 46.9850181,48.7202624 42.2861736,47.6913183 L34.2604502,45.8906752 C26.3718791,44.1071722 20.9185574,42.1693567 17.9003215,40.0771704 C12.7898994,36.5787606 10.2347267,31.1082902 10.2347267,23.6655949 C10.2347267,16.8745641 12.7041554,11.2326055 17.6430868,6.73954984 C22.5820183,2.24649415 29.835965,0 39.4051447,0 C47.3966102,0 54.2132623,2.11787807 59.8553055,6.35369775 C65.4973487,10.5895174 68.4555185,16.7373659 68.7299035,24.7974277 L53.5016077,24.7974277 C53.2272226,20.2357757 51.2379606,16.9946505 47.5337621,15.073955 C45.0642963,13.804924 41.9946593,13.170418 38.3247588,13.170418 C34.2432808,13.170418 30.9850068,13.9935609 28.5498392,15.6398714 C26.1146716,17.2861819 24.8971061,19.5841224 24.8971061,22.5337621 C24.8971061,25.2433147 26.0975228,27.2668743 28.4983923,28.6045016 C30.0418084,29.4962531 33.3343799,30.5423305 38.3762058,31.7427653 L51.4437299,34.8810289 C57.1715185,36.2529543 61.4930186,38.087877 64.4083601,40.3858521 C68.935714,43.9528581 71.1993569,49.11465 71.1993569,55.8713826 C71.1993569,62.7996059 68.5498657,68.5530318 63.2508039,73.1318328 C57.951742,77.7106338 50.4662863,80 40.7942122,80 C30.9163493,80 23.1479383,77.7449314 17.488746,73.2347267 C11.8295537,68.7245219 9,62.525227 9,54.6366559 L24.1254019,54.6366559 Z" id="S-Copy" style="mix-blend-mode: multiply;"></path>

</svg>